<svg height="512" viewBox="0 0 58 58" width="512" xmlns="http://www.w3.org/2000/svg"><g id="005---Ramen" fill="none"><circle id="Oval" cx="29" cy="29" fill="#e64c3c" r="29"/><circle id="Oval" cx="29" cy="29" fill="#f29c1f" r="25"/><circle id="Oval" cx="29" cy="29" fill="#f0c419" r="24"/><path id="Shape" d="m26.072 25.611c-10.18 6.356-18.652-7.217-8.472-13.572 4.685-2.925 11.228-2.787 13.568.96s-.411 9.687-5.096 12.612z" fill="#f5efca"/><circle id="Oval" cx="20.987" cy="19.355" fill="#f29c1f" r="5.013"/><circle id="Oval" cx="19.632" cy="18" fill="#f0c419" r="2"/><circle id="Oval" cx="11" cy="32" fill="#71c285" r="3"/><circle id="Oval" cx="13" cy="38" fill="#7ed09e" r="3"/><circle id="Oval" cx="17" cy="34" fill="#71c285" r="3"/><circle id="Oval" cx="18" cy="40" fill="#71c285" r="3"/><path id="Shape" d="m53.88 31.39c-.3106644 3.3295821-1.2938414 6.5614788-2.89 9.5-.0533398-2.2143499-1.113676-4.2834783-2.88-5.62-5-4-9-3-11-7-.4763546-1.0313109-1.6546682-1.5363024-2.73-1.17 1.311-4.43 5.826-6.779 7.29-3.89 2 4 6 3 11 7 .4415335.3521581.8468701.747445 1.21 1.18z" fill="#fdd7ad"/><path id="Shape" d="m45.44 47.81c-.7705778.6833435-1.5857063 1.3147341-2.44 1.89-5.0214501 3.4208338-11.1251745 4.8764742-17.15 4.09-.44-4.69 1.93-4.37-.85-11.79-3-7.987 4.981-13.985 7-10 2 4 6 3 11 7 2.619528 2.1088477 3.6013857 5.653998 2.44 8.81z" fill="#fdd7ad"/><g fill="#f9c795"><path id="Shape" d="m50.99 40.89c-1.4201906 2.6207332-3.3001101 4.9647048-5.55 6.92 1.1613857-3.156002.179528-6.7011523-2.44-8.81-5-4-9-3-11-7-.296091-.6686198-.9159965-1.1373289-1.64-1.24.7680476-1.7293288 2.2264075-3.0570893 4.02-3.66 1.0753318-.3663024 2.2536454.1386891 2.73 1.17 2 4 6 3 11 7 1.766324 1.3365217 2.8266602 3.4056501 2.88 5.62z"/><path id="Shape" d="m43 49.7c-.54.37-1.1.71-1.67 1.04-.2094794-.1890592-.329333-.4578218-.33-.74 0-4.69-.8-7.24-5.37-9.07-5.2-2.08-6.4-4.24-6.52-4.48-.2077405-.4814666-.0082926-1.041631.4569823-1.2834688s1.0383358-.0832034 1.3130177.3634688c.05.07 1.1 1.79 5.49 3.54 5.44 2.18 6.59 5.56 6.63 10.63z"/></g></g></svg>